<svg width="45" height="45" viewBox="0 0 45 45" fill="none" xmlns="http://www.w3.org/2000/svg">
<path d="M20.4629 24.5348C20.1046 24.1771 19.6775 23.8957 19.2075 23.7075L4.33875 17.745C4.16122 17.6738 4.00973 17.5499 3.90461 17.3901C3.79949 17.2303 3.74578 17.0422 3.75067 16.8509C3.75557 16.6597 3.81885 16.4746 3.93201 16.3203C4.04517 16.1661 4.20281 16.0502 4.38375 15.9881L40.0087 3.80064C40.1749 3.74063 40.3547 3.72918 40.5271 3.76762C40.6995 3.80607 40.8574 3.89282 40.9823 4.01772C41.1072 4.14263 41.1939 4.30052 41.2324 4.47293C41.2708 4.64534 41.2594 4.82513 41.1994 4.99126L29.0119 40.6163C28.9498 40.7972 28.8339 40.9548 28.6797 41.068C28.5255 41.1812 28.3403 41.2444 28.1491 41.2493C27.9579 41.2542 27.7697 41.2005 27.6099 41.0954C27.4501 40.9903 27.3262 40.8388 27.255 40.6613L21.2925 25.7888C21.1035 25.3191 20.8213 24.8925 20.4629 24.5348ZM20.4629 24.5348L40.9762 4.02564" stroke="black" stroke-width="2" stroke-linecap="round" stroke-linejoin="round"/>
</svg>
