<svg width="21" height="22" viewBox="0 0 21 22" fill="none" xmlns="http://www.w3.org/2000/svg">
<path d="M10.2957 1H9.85291C9.31914 1 8.80723 1.21071 8.4298 1.58579C8.05237 1.96086 7.84033 2.46957 7.84033 3V3.18C7.83997 3.53073 7.7468 3.87519 7.57018 4.17884C7.39356 4.48248 7.13969 4.73464 6.83404 4.91L6.40134 5.16C6.09539 5.33554 5.74833 5.42795 5.39505 5.42795C5.04177 5.42795 4.69471 5.33554 4.38876 5.16L4.23782 5.08C3.77599 4.81526 3.22734 4.74344 2.71228 4.88031C2.19723 5.01717 1.75787 5.35154 1.49065 5.81L1.26926 6.19C1.00286 6.64893 0.93059 7.19416 1.06831 7.706C1.20604 8.21783 1.54251 8.65445 2.00385 8.92L2.1548 9.02C2.45897 9.19451 2.7119 9.44509 2.88843 9.74683C3.06497 10.0486 3.15897 10.391 3.16109 10.74V11.25C3.16249 11.6024 3.07017 11.949 2.89346 12.2545C2.71675 12.5601 2.46193 12.8138 2.1548 12.99L2.00385 13.08C1.54251 13.3456 1.20604 13.7822 1.06831 14.294C0.93059 14.8058 1.00286 15.3511 1.26926 15.81L1.49065 16.19C1.75787 16.6485 2.19723 16.9828 2.71228 17.1197C3.22734 17.2566 3.77599 17.1847 4.23782 16.92L4.38876 16.84C4.69471 16.6645 5.04177 16.5721 5.39505 16.5721C5.74833 16.5721 6.09539 16.6645 6.40134 16.84L6.83404 17.09C7.13969 17.2654 7.39356 17.5175 7.57018 17.8212C7.7468 18.1248 7.83997 18.4693 7.84033 18.82V19C7.84033 19.5304 8.05237 20.0391 8.4298 20.4142C8.80723 20.7893 9.31914 21 9.85291 21H10.2957C10.8294 21 11.3414 20.7893 11.7188 20.4142C12.0962 20.0391 12.3083 19.5304 12.3083 19V18.82C12.3086 18.4693 12.4018 18.1248 12.5784 17.8212C12.755 17.5175 13.0089 17.2654 13.3145 17.09L13.7472 16.84C14.0532 16.6645 14.4003 16.5721 14.7535 16.5721C15.1068 16.5721 15.4539 16.6645 15.7598 16.84L15.9108 16.92C16.3726 17.1847 16.9212 17.2566 17.4363 17.1197C17.9514 16.9828 18.3907 16.6485 18.6579 16.19L18.8793 15.8C19.1457 15.3411 19.218 14.7958 19.0803 14.284C18.9425 13.7722 18.6061 13.3356 18.1447 13.07L17.9938 12.99C17.6867 12.8138 17.4318 12.5601 17.2551 12.2545C17.0784 11.949 16.9861 11.6024 16.9875 11.25V10.75C16.9861 10.3976 17.0784 10.051 17.2551 9.74549C17.4318 9.43994 17.6867 9.18621 17.9938 9.01L18.1447 8.92C18.6061 8.65445 18.9425 8.21783 19.0803 7.706C19.218 7.19416 19.1457 6.64893 18.8793 6.19L18.6579 5.81C18.3907 5.35154 17.9514 5.01717 17.4363 4.88031C16.9212 4.74344 16.3726 4.81526 15.9108 5.08L15.7598 5.16C15.4539 5.33554 15.1068 5.42795 14.7535 5.42795C14.4003 5.42795 14.0532 5.33554 13.7472 5.16L13.3145 4.91C13.0089 4.73464 12.755 4.48248 12.5784 4.17884C12.4018 3.87519 12.3086 3.53073 12.3083 3.18V3C12.3083 2.46957 12.0962 1.96086 11.7188 1.58579C11.3414 1.21071 10.8294 1 10.2957 1Z" stroke="black" stroke-width="2" stroke-linecap="round" stroke-linejoin="round"/>
<path d="M10.0743 14C11.7416 14 13.0932 12.6569 13.0932 11C13.0932 9.34315 11.7416 8 10.0743 8C8.40702 8 7.05543 9.34315 7.05543 11C7.05543 12.6569 8.40702 14 10.0743 14Z" stroke="black" stroke-width="2" stroke-linecap="round" stroke-linejoin="round"/>
</svg>
