<svg width="45" height="45" viewBox="0 0 45 45" fill="none" xmlns="http://www.w3.org/2000/svg">
<path d="M37.5 18.75C37.5 28.1119 27.1144 37.8619 23.6269 40.8731C23.302 41.1174 22.9065 41.2495 22.5 41.2495C22.0935 41.2495 21.698 41.1174 21.3731 40.8731C17.8856 37.8619 7.5 28.1119 7.5 18.75C7.5 14.7718 9.08035 10.9564 11.8934 8.1434C14.7064 5.33035 18.5218 3.75 22.5 3.75C26.4782 3.75 30.2936 5.33035 33.1066 8.1434C35.9196 10.9564 37.5 14.7718 37.5 18.75Z" stroke="black" stroke-width="2" stroke-linecap="round" stroke-linejoin="round"/>
<path d="M22.5 24.375C25.6066 24.375 28.125 21.8566 28.125 18.75C28.125 15.6434 25.6066 13.125 22.5 13.125C19.3934 13.125 16.875 15.6434 16.875 18.75C16.875 21.8566 19.3934 24.375 22.5 24.375Z" stroke="black" stroke-width="2" stroke-linecap="round" stroke-linejoin="round"/>
</svg>
