<svg width="45" height="45" viewBox="0 0 45 45" fill="none" xmlns="http://www.w3.org/2000/svg">
<path d="M33.75 37.5C33.75 34.5163 32.5647 31.6548 30.455 29.545C28.3452 27.4353 25.4837 26.25 22.5 26.25M22.5 26.25C19.5163 26.25 16.6548 27.4353 14.545 29.545C12.4353 31.6548 11.25 34.5163 11.25 37.5M22.5 26.25C26.6421 26.25 30 22.8921 30 18.75C30 14.6079 26.6421 11.25 22.5 11.25C18.3579 11.25 15 14.6079 15 18.75C15 22.8921 18.3579 26.25 22.5 26.25ZM41.25 22.5C41.25 32.8553 32.8553 41.25 22.5 41.25C12.1447 41.25 3.75 32.8553 3.75 22.5C3.75 12.1447 12.1447 3.75 22.5 3.75C32.8553 3.75 41.25 12.1447 41.25 22.5Z" stroke="black" stroke-width="2" stroke-linecap="round" stroke-linejoin="round"/>
</svg>
