<svg width="45" height="45" viewBox="0 0 45 45" fill="none" xmlns="http://www.w3.org/2000/svg">
<path d="M28.125 39.375V24.375C28.125 23.8777 27.9275 23.4008 27.5758 23.0492C27.2242 22.6975 26.7473 22.5 26.25 22.5H18.75C18.2527 22.5 17.7758 22.6975 17.4242 23.0492C17.0725 23.4008 16.875 23.8777 16.875 24.375V39.375M5.625 18.75C5.62487 18.2045 5.74375 17.6655 5.97335 17.1707C6.20295 16.6759 6.53775 16.2371 6.95438 15.885L20.0794 4.63688C20.7562 4.06483 21.6138 3.75098 22.5 3.75098C23.3862 3.75098 24.2438 4.06483 24.9206 4.63688L38.0456 15.885C38.4623 16.2371 38.797 16.6759 39.0266 17.1707C39.2563 17.6655 39.3751 18.2045 39.375 18.75V35.625C39.375 36.6196 38.9799 37.5734 38.2766 38.2766C37.5734 38.9799 36.6196 39.375 35.625 39.375H9.375C8.38044 39.375 7.42661 38.9799 6.72335 38.2766C6.02009 37.5734 5.625 36.6196 5.625 35.625V18.75Z" stroke="black" stroke-width="2" stroke-linecap="round" stroke-linejoin="round"/>
</svg>
